# AST/ASF file generated using VICON BodyLanguage
# -----------------------------------------------
:version 1.10
:name VICON
:units
  mass 1.0
  length 0.45
  angle deg
:documentation
   .ast/.asf automatically generated from VICON data using
   VICON BodyBuilder and BodyLanguage model FoxedUp or BRILLIANT.MOD
:root
   order TX TY TZ RX RY RZ
   axis XYZ
   position 0 0 0  
   orientation 0 0 0 
:bonedata
  begin
     id 1 
     name lhipjoint
     direction 0.653368 -0.678499 0.335782 
     length 2.51848 
     axis 0 0 0  XYZ
  end
  begin
     id 2 
     name lfemur
     direction 0.34202 -0.939693 0  
     length 6.57749  
     axis 0 0 20  XYZ
    dof rx ry rz
    limits (-160.0 20.0)
           (-70.0 70.0)
           (-60.0 70.0)
  end
  begin
     id 3 
     name ltibia
     direction 0.34202 -0.939693 0   
     length 7.94618   
     axis 0 0 20   XYZ
    dof rx
    limits (-10.0 170.0)
  end
  begin
     id 4 
     name lfoot
     direction 0.0811271 -0.222895 0.971461   
     length 2.31339   
     axis -90 7.62852e-016 20   XYZ
    dof rx rz
    limits (-45.0 90.0)
           (-70.0 20.0)
  end
  begin
     id 5 
     name ltoes
     direction 1.53568e-011 -4.21885e-011 1   
     length 1.15935   
     axis -90 7.62852e-016 20   XYZ
    dof rx
    limits (-90.0 20.0)
  end
  begin
     id 6 
     name rhipjoint
     direction -0.640058 -0.688614 0.340788   
     length 2.48149  
     axis 0 0 0  XYZ 
  end
  begin
     id 7 
     name rfemur
     direction -0.34202 -0.939693 0   
     length 6.57875   
     axis 0 0 -20   XYZ
    dof rx ry rz
    limits (-160.0 20.0)
           (-70.0 70.0)
           (-70.0 60.0)
  end
  begin
     id 8 
     name rtibia
     direction -0.34202 -0.939693 0   
     length 7.977   
     axis 0 0 -20   XYZ
    dof rx
    limits (-10.0 170.0)
 end
 begin
     id 9 
     name rfoot
     direction -0.0979793 -0.269196 0.958089   
     length 2.19857  
     axis -90 -7.62852e-016 -20   XYZ
    dof rx rz
    limits (-45.0 90.0)
           (-20.0 70.0)
  end
  begin
     id 10 
     name rtoes
     direction -1.53556e-011 -4.21868e-011 1   
     length 1.09838   
     axis -90 -7.62852e-016 -20   XYZ
    dof rx
    limits (-90.0 20.0)
  end
  begin
     id 11 
     name lowerback
     direction 0.0149039 0.998517 -0.0523597   
     length 2.10809   
     axis 0 0 0   XYZ
    dof rx ry rz
    limits (-20.0 45.0)
           (-30.0 30.0)
           (-30.0 30.0)
  end
  begin
     id 12 
     name upperback
     direction -0.00882659 0.999418 -0.0329624   
     length 2.1102   
     axis 0 0 0   XYZ
    dof rx ry rz
    limits (-20.0 45.0)
           (-30.0 30.0)
           (-30.0 30.0)
  end
  begin
     id 13 
     name thorax
     direction -0.0165585 0.999826 -0.0085833   
     length 2.11039   
     axis 0 0 0   XYZ
    dof rx ry rz
    limits (-20.0 45.0)
           (-30.0 30.0)
           (-30.0 30.0)
  end
  begin
     id 14 
     name lowerneck
     direction -0.0130877 0.999911 0.00260353   
     length 1.73253   
     axis 0 0 0   XYZ
    dof rx ry rz
    limits (-20.0 45.0)
           (-30.0 30.0)
           (-30.0 30.0)
  end
  begin
     id 15 
     name upperneck
     direction -0.0348454 0.928205 -0.370435   
     length 1.66692   
     axis 0 0 0   XYZ
    dof rx ry rz
    limits (-20.0 45.0)
           (-30.0 30.0)
           (-30.0 30.0)
  end
  begin
     id 16
     name head
     direction -0.00807754 0.992494 -0.122026  
     length 1.72765  
     axis 0 0 0   XYZ
    dof rx ry rz
    limits (-20.0 45.0)
           (-30.0 30.0)
           (-30.0 30.0)
  end
  begin
     id 17 
     name lclavicle
     direction 0.987582 0.144023 0.0627671  
     length 3.49235  
     axis 0 0 0   XYZ
    dof ry rz
    limits (-20.0 10.0)
           (0.0 20.0)
  end
  begin
     id 18 
     name lhumerus
     direction 1 -4.48958e-011 -1.45183e-018   
     length 5.41917   
     axis 180 -30 -90   XYZ
    dof rx ry rz
    limits (-60.0 90.0)
           (-90.0 90.0)
           (-90.0 90.0)
  end
  begin
     id 19
     name lradius
     direction 1 -4.48999e-011 5.75106e-027   
     length 2.44373   
     axis 180 -30 -90   XYZ
    dof rx
    limits (-10.0 170.0)
  end
  begin
     id 20
     name lwrist
     direction 1 -4.48987e-011 1.53461e-026   
     length 1.22186   
     axis -1.09697e-014 90 90   XYZ
    dof ry
    limits (-180.0 0.0)
 end
  begin
     id 21 
     name lhand
     direction 1 -4.48881e-011 3.06923e-026   
     length 0.727502   
     axis -1.95843e-014 90 90   XYZ
    dof rx rz
    limits (-90.0 90.0)
           (-45.0 45.0)
  end
  begin
     id 22 
     name lfingers
     direction 1 -4.48907e-011 6.13845e-026   
     length 0.586531   
     axis -3.91686e-014 90 90   XYZ
    dof rx
    limits (0.0 90.0)
  end
  begin
     id 23
     name lthumb
     direction 0.707107 -6.3487e-011 0.707107   
     length 0.842145   
     axis -90 45 2.85299e-015   XYZ
    dof rx rz
    limits (-45.0 45.0)
           (-45.0 45.0)
  end
  begin
     id 24 
     name rclavicle
     direction -0.980998 0.169556 0.0943023   
     length 3.29272  
     axis 0 0 0   XYZ 
    dof ry rz
    limits (-10.0 20.0)
           (-20.0 0.0)
  end
  begin
     id 25 
     name rhumerus
     direction -1 -1.83355e-005 2.45537e-005  
     length 5.58976   
     axis 180 30 90   XYZ
    dof rx ry rz
    limits (-90.0 60.0)
           (-90.0 90.0)
           (-90.0 90.0)
  end
  begin
     id 26 
     name rradius
     direction -1 -4.48967e-011 5.97228e-027   
     length 2.4806   
     axis 180 30 90   XYZ
    dof rx
    limits (-10.0 170.0)
  end
  begin
     id 27 
     name rwrist
     direction -1 -4.48963e-011 1.53461e-026   
     length 1.2403   
     axis -1.09697e-014 -90 -90   XYZ
    dof ry
    limits (-180.0 0.0)
  end
  begin
     id 28
     name rhand
     direction -1 -4.48881e-011 3.06923e-026   
     length 0.816009   
     axis -1.95843e-014 -90 -90   XYZ
    dof rx rz
    limits (-90.0 90.0)
           (-45.0 45.0)
  end
  begin
     id 29
     name rfingers
     direction -1 -4.49018e-011 6.13845e-026   
     length 0.657887   
     axis -3.91686e-014 -90 -90   XYZ
    dof rx
    limits (0.0 90.0)
  end
  begin
     id 30
     name rthumb
     direction -0.707107 -6.34872e-011 0.707107   
     length 0.944599   
     axis -90 -45 -2.85299e-015   XYZ
    dof rx rz
    limits (-45.0 45.0)
           (-45.0 45.0)
  end
:hierarchy
  begin
    root lhipjoint rhipjoint lowerback
    lhipjoint lfemur
    lfemur ltibia
    ltibia lfoot
    lfoot ltoes
    rhipjoint rfemur
    rfemur rtibia
    rtibia rfoot
    rfoot rtoes
    lowerback upperback
    upperback thorax
    thorax lowerneck lclavicle rclavicle
    lowerneck upperneck
    upperneck head
    lclavicle lhumerus
    lhumerus lradius
    lradius lwrist
    lwrist lhand lthumb
    lhand lfingers
    rclavicle rhumerus
    rhumerus rradius
    rradius rwrist
    rwrist rhand rthumb
    rhand rfingers
  end

#!OML:ASF F:\VICON\USERDATA\INSTALL\rory3\rory3.ASF
:FULLY-SPECIFIED
:DEGREES
128
root 1.57295 16.3853 -7.87629 17.043 30.2969 0.0213541
lowerback -4.15573 -2.17438 -1.54882
upperback -9.5446 -2.26071 8.8785
thorax -7.36943 -0.549923 10.5209
lowerneck -5.19663 -8.83804 -3.79771
upperneck 32.6644 -10.9203 -3.5267
head 11.4966 -5.67316 -1.83497
rclavicle -2.18663e-015 -4.45278e-014
rhumerus 44.6447 -8.42806 15.1705
rradius 23.3637
rwrist 33.1906
rhand 18.2753 -8.01197
rfingers 7.12502
rthumb 42.9252 -32.2843
lclavicle -2.18663e-015 -4.45278e-014
lhumerus 46.202 31.8237 5.01044
lradius 22.3723
lwrist -42.287
lhand 6.33368 33.0617
lfingers 7.12502
lthumb 31.6412 60.339
rfemur -66.7931 4.78449 0.867178
rtibia 43.2006
rfoot -57.1059 -7.71523
rtoes 61.6015
lfemur -19.5701 -13.6992 -33.1814
ltibia 29.5281
lfoot -24.6121 10.2692
ltoes 1.3278
129
root 1.60605 16.3628 -7.85759 17.2602 30.8892 0.126735
lowerback -4.37432 -2.07432 -1.48096
upperback -9.65519 -2.12329 8.74792
thorax -7.39613 -0.484429 10.3268
lowerneck -4.73451 -9.01768 -3.92454
upperneck 32.5904 -11.2284 -3.30749
head 11.4019 -5.79906 -1.73928
rclavicle -1.07344e-014 6.36111e-015
rhumerus 46.643 -10.4158 12.6871
rradius 23.6918
rwrist 35.2312
rhand 18.6066 -7.66451
rfingers 7.12502
rthumb 43.2349 -31.8269
lclavicle -1.07344e-014 6.36111e-015
lhumerus 52.1541 33.3863 10.4367
lradius 22.3997
lwrist -42.7215
lhand 5.7192 34.0177
lfingers 7.12502
lthumb 31.0557 61.4085
rfemur -68.2128 4.29266 1.88485
rtibia 43.2647
rfoot -55.1004 -11.5084
rtoes 61.2727
lfemur -19.4057 -13.5353 -33.5638
ltibia 29.1962
lfoot -24.7611 10.7419
ltoes 1.70526
130
root 1.63157 16.3593 -7.79716 16.7086 32.2716 0.369347
lowerback -4.1019 -2.31748 -1.76857
upperback -9.49709 -2.45837 8.748
thorax -7.30353 -0.641397 10.5001
lowerneck -4.33034 -9.14898 -3.97212
upperneck 32.348 -11.4411 -3.2053
head 11.2385 -5.89013 -1.6826
rclavicle 3.79679e-014 5.08889e-014
rhumerus 51.1855 -16.1551 3.18005
rradius 22.8906
rwrist 44.4238
rhand 18.5794 -5.45172
rfingers 7.12502
rthumb 43.2095 -29.6232
lclavicle 3.79679e-014 5.08889e-014
lhumerus 58.0821 34.6686 16.204
lradius 22.2762
lwrist -44.0559
lhand 4.95842 33.5398
lfingers 7.12502
lthumb 30.3303 61.0667
rfemur -68.2464 3.41065 3.30113
rtibia 43.3454
rfoot -52.8388 -13.6514
rtoes 60.8561
lfemur -18.0091 -13.2198 -33.9813
ltibia 28.8568
lfoot -24.8356 10.5533
ltoes 1.60808
131
root 1.66595 16.3424 -7.75574 16.6456 33.2349 0.444661
lowerback -4.16631 -2.45234 -1.78538
upperback -9.5207 -2.63142 8.82453
thorax -7.25573 -0.723068 10.5948
lowerneck -4.09519 -9.174 -4.12077
upperneck 32.2681 -11.4631 -3.16585
head 11.176 -5.91092 -1.62965
rclavicle -3.47873e-014 -3.49861e-014
rhumerus 53.7821 -17.2547 0.562324
rradius 23.3788
rwrist 45.6978
rhand 17.9773 -5.15642
rfingers 7.12502
rthumb 42.6463 -29.5262
lclavicle -3.47873e-014 -3.49861e-014
lhumerus 63.5445 35.2139 21.6583
lradius 22.1318
lwrist -45.3037
lhand 4.21902 32.483
lfingers 7.12502
lthumb 29.6248 60.1375
rfemur -68.9771 2.74998 4.54681
rtibia 43.2782
rfoot -50.5404 -15.0011
rtoes 60.6417
lfemur -17.4974 -12.613 -34.2687
ltibia 28.7129
lfoot -24.9999 10.0888
ltoes 2.41911
132
root 1.70223 16.3223 -7.72474 16.7518 34.1227 0.539758
lowerback -4.28104 -2.5525 -1.76492
upperback -9.58058 -2.75368 8.91629
thorax -7.22997 -0.778386 10.6843
lowerneck -4.0936 -9.28196 -4.57716
upperneck 32.3292 -11.595 -2.98841
head 11.251 -5.99739 -1.51399
rclavicle -2.78299e-015 6.36111e-015
rhumerus 54.9138 -16.5329 1.99142
rradius 24.4374
rwrist 42.9196
rhand 17.6261 -5.36536
rfingers 7.12502
rthumb 42.3175 -29.8481
lclavicle -2.78299e-015 6.36111e-015
lhumerus 69.5414 35.3263 28.2335
lradius 21.886
lwrist -47.2583
lhand 3.2166 31.0956
lfingers 7.12502
lthumb 28.6675 58.916
rfemur -69.8676 2.13738 5.73861
rtibia 43.2161
rfoot -47.9887 -17.5058
rtoes 60.3052
lfemur -17.2582 -11.8736 -34.5878
ltibia 28.5048
lfoot -24.8429 9.99027
ltoes 1.99561
133
root 1.73085 16.3052 -7.68129 16.8258 34.9956 0.682608
lowerback -4.43563 -2.59985 -1.93575
upperback -9.6468 -2.81182 8.91904
thorax -7.19649 -0.791795 10.7839
lowerneck -3.85536 -9.45437 -4.99891
upperneck 32.34 -11.8653 -2.7011
head 11.2682 -6.13102 -1.36345
rclavicle -6.59965e-014 -3.18055e-014
rhumerus 55.8202 -15.7681 3.46038
rradius 25.3357
rwrist 40.1705
rhand 17.428 -5.7903
rfingers 7.12502
rthumb 42.132 -30.336
lclavicle -6.59965e-014 -3.18055e-014
lhumerus 74.7667 34.5248 33.5742
lradius 21.8108
lwrist -48.1719
lhand 2.06228 30.1305
lfingers 7.12502
lthumb 27.5642 58.1322
rfemur -70.6336 1.62536 6.97842
rtibia 43.1224
rfoot -44.7604 -22.1844
rtoes 59.2047
lfemur -16.9274 -11.4453 -34.9068
ltibia 28.385
lfoot -24.7046 10.381
ltoes 0.857519
134
root 1.75909 16.3014 -7.61907 16.5476 35.9571 0.588821
lowerback -4.54631 -2.67349 -2.04631
upperback -9.63767 -2.90688 8.96778
thorax -7.09765 -0.831666 10.8964
lowerneck -3.10649 -9.51704 -5.04439
upperneck 31.9798 -12.0038 -2.55773
head 10.9975 -6.18705 -1.2584
rclavicle -1.43125e-014 -3.18055e-014
rhumerus 57.1886 -15.5519 3.30876
rradius 26.0166
rwrist 39.0898
rhand 17.2342 -6.53595
rfingers 7.12502
rthumb 41.9504 -31.1426
lclavicle -1.43125e-014 -3.18055e-014
lhumerus 78.6938 33.1821 36.9355
lradius 21.9011
lwrist -47.4697
lhand 0.968652 29.4916
lfingers 7.12502
lthumb 26.5178 57.6557
rfemur -70.9953 1.19033 8.52034
rtibia 43.0695
rfoot -40.6168 -27.2974
rtoes 57.5429
lfemur -16.2263 -11.4184 -34.9188
ltibia 28.2958
lfoot -25.0766 10.698
ltoes 1.16842
135
root 1.79908 16.2951 -7.55955 16.4747 37.034 0.714318
lowerback -4.79013 -2.88543 -2.19883
upperback -9.58305 -3.19431 9.06026
thorax -6.82749 -0.974801 11.0677
lowerneck -2.83884 -9.52441 -5.0292
upperneck 31.793 -11.9911 -2.63952
head 10.8659 -6.18906 -1.2628
rclavicle -6.22196e-014 0
rhumerus 59.535 -16.3153 1.09086
rradius 26.3643
rwrist 40.4944
rhand 17.1755 -6.28851
rfingers 7.12502
rthumb 41.8954 -30.9135
lclavicle -6.22196e-014 0
lhumerus 81.8407 32.0101 39.3346
lradius 21.9672
lwrist -46.3489
lhand 0.175465 28.3952
lfingers 7.12502
lthumb 25.7584 56.6717
rfemur -71.3301 0.538352 9.84005
rtibia 43.1329
rfoot -36.4589 -30.7324
rtoes 56.3654
lfemur -15.6453 -11.072 -35.122
ltibia 28.2493
lfoot -25.2241 10.7785
ltoes 0.397735
136
root 1.84721 16.2733 -7.50743 16.6663 38.2089 0.996314
lowerback -5.21093 -3.15354 -2.28613
upperback -9.56284 -3.55658 9.15436
thorax -6.47903 -1.16346 11.1869
lowerneck -3.25764 -9.56574 -5.02353
upperneck 32.0426 -11.911 -3.04551
head 11.0133 -6.18953 -1.43347
rclavicle -9.34288e-015 -3.81667e-014
rhumerus 62.1124 -17.1109 -1.51224
rradius 26.5586
rwrist 42.1411
rhand 16.9601 -5.51607
rfingers 7.12502
rthumb 41.6933 -30.208
lclavicle -9.34288e-015 -3.81667e-014
lhumerus 84.1776 30.87 40.6003
lradius 22.0966
lwrist -44.6505
lhand -0.7435 27.5512
lfingers 7.12502
lthumb 24.878 55.9524
rfemur -71.8541 -0.267179 10.9878
rtibia 43.2885
rfoot -31.2513 -34.2928
rtoes 54.8728
lfemur -15.3526 -10.2772 -35.4623
ltibia 28.3425
lfoot -24.9862 10.5039
ltoes -1.80987
137
root 1.88509 16.2467 -7.44989 16.8539 39.3684 1.42343
lowerback -5.31042 -3.38945 -2.57704
upperback -9.63584 -3.86513 9.19809
thorax -6.41963 -1.29695 11.3996
lowerneck -3.30158 -9.61732 -5.25805
upperneck 32.1929 -11.907 -3.16449
head 11.0923 -6.22184 -1.44841
rclavicle -4.94974e-014 -3.18055e-014
rhumerus 64.2039 -17.3076 -3.13973
rradius 26.8313
rwrist 42.8141
rhand 16.8565 -5.01799
rfingers 7.12502
rthumb 41.5962 -29.7419
lclavicle -4.94974e-014 -3.18055e-014
lhumerus 85.97 29.4788 41.1389
lradius 22.3401
lwrist -42.4358
lhand -1.87857 27.8211
lfingers 7.12502
lthumb 23.7899 56.3683
rfemur -72.2767 -1.01666 12.119
rtibia 43.496
rfoot -24.2686 -38.0436
rtoes 51.5987
lfemur -14.9694 -10.0545 -35.8194
ltibia 28.6618
lfoot -25.224 10.091
ltoes -1.59078
138
root 1.91503 16.2233 -7.38626 16.9583 40.5201 1.72993
lowerback -5.17669 -3.54566 -2.80675
upperback -9.85338 -4.05344 9.18871
thorax -6.68373 -1.35303 11.5494
lowerneck -2.58191 -9.73049 -5.7041
upperneck 32.0628 -12.1153 -2.87067
head 10.9655 -6.33313 -1.24902
rclavicle -4.57205e-014 -5.40694e-014
rhumerus 65.5068 -16.9971 -3.40551
rradius 27.3362
rwrist 42.7587
rhand 17.1493 -4.53027
rfingers 7.12502
rthumb 41.8707 -29.1635
lclavicle -4.57205e-014 -5.40694e-014
lhumerus 87.7692 27.8407 41.8765
lradius 22.6179
lwrist -40.5866
lhand -2.9666 27.6613
lfingers 7.12502
lthumb 22.746 56.3404
rfemur -72.6147 -2.36088 14.167
rtibia 43.7078
rfoot -16.5813 -39.9204
rtoes 46.8405
lfemur -14.6918 -10.2867 -36.0176
ltibia 29.2103
lfoot -25.6903 10.4461
ltoes -2.91951
139
root 1.94579 16.2014 -7.318 16.9057 41.7067 1.73847
lowerback -5.10762 -3.69984 -2.83958
upperback -10.1289 -4.23207 9.20998
thorax -6.98665 -1.41023 11.6186
lowerneck -1.54651 -9.8903 -5.90793
upperneck 31.8583 -12.4134 -2.67294
head 10.7267 -6.47152 -1.10567
rclavicle 2.98177e-015 3.18055e-015
rhumerus 66.532 -16.4779 -3.37131
rradius 27.9439
rwrist 42.141
rhand 17.3228 -4.51797
rfingers 7.12502
rthumb 42.0334 -29.0968
lclavicle 2.98177e-015 3.18055e-015
lhumerus 88.4964 26.4273 40.8539
lradius 23.3284
lwrist -37.797
lhand -3.49498 26.9441
lfingers 7.12502
lthumb 22.2389 55.6846
rfemur -72.9536 -3.94632 16.8292
rtibia 43.9327
rfoot -8.27017 -40.4391
rtoes 42.0013
lfemur -14.5372 -10.2391 -35.9225
ltibia 29.8376
lfoot -25.9649 10.48
ltoes -5.04527
140
root 1.98493 16.1814 -7.24887 16.8328 42.957 1.81481
lowerback -5.15115 -3.96004 -2.95431
upperback -10.2224 -4.56362 9.3656
thorax -6.9752 -1.55701 11.861
lowerneck -1.92426 -9.66819 -6.20734
upperneck 32.2836 -12.0418 -2.62527
head 10.9859 -6.31979 -1.04615
rclavicle -2.90226e-014 3.18055e-015
rhumerus 67.9269 -16.1723 -3.67524
rradius 28.4934
rwrist 41.3356
rhand 16.8495 -4.78373
rfingers 7.12502
rthumb 41.5896 -29.5098
lclavicle -2.90226e-014 3.18055e-015
lhumerus 88.5706 25.6781 38.8444
lradius 24.4031
lwrist -34.4623
lhand -3.97362 26.5124
lfingers 7.12502
lthumb 21.7793 55.307
rfemur -73.1995 -5.61906 19.4636
rtibia 44.1766
rfoot 0.41996 -40.1072
rtoes 39.6013
lfemur -14.5196 -9.88122 -35.8723
ltibia 30.802
lfoot -25.9619 10.2836
ltoes -7.19842
